<svg width="400" height="700" xmlns="http://www.w3.org/2000/svg" style="image-rendering: pixelated;">
  <!-- Background -->
  <rect x="0" y="0" width="400" height="700" fill="#a89271"/>
  
  <!-- Main wall -->
  <rect x="40" y="40" width="320" height="380" fill="#f0e8d5"/>
  
  <!-- Floor -->
  <rect x="0" y="420" width="400" height="280" fill="#9d7fb5"/>
  
  <!-- Left wall -->
  <rect x="0" y="0" width="40" height="700" fill="#a89271"/>
  
  <!-- Right wall -->
  <rect x="360" y="0" width="40" height="700" fill="#a89271"/>
  
  <!-- Top wall border -->
  <rect x="0" y="0" width="400" height="40" fill="#a89271"/>
  
  <!-- Wall-floor border -->
  <rect x="40" y="420" width="320" height="20" fill="#a89271"/>
  
  <!-- Window on left wall -->
  <rect x="50" y="120" width="120" height="80" fill="#8a64a3"/>
  <rect x="55" y="125" width="110" height="70" fill="#5a4d6b"/>
  <rect x="60" y="130" width="100" height="60" fill="#8a64a3"/>
  <!-- Window content - sky and colors -->
  <rect x="70" y="140" width="20" height="40" fill="#4fd0e4"/>
  <rect x="90" y="140" width="20" height="40" fill="#ff6b47"/>
  <rect x="110" y="140" width="20" height="40" fill="#ffb347"/>
  <rect x="130" y="140" width="20" height="40" fill="#4fd0e4"/>
  
  <!-- Desk area -->
  <rect x="80" y="320" width="120" height="60" fill="#8a64a3"/>
  <rect x="80" y="320" width="120" height="12" fill="#a084ca"/>
  
  <!-- Desk legs -->
  <rect x="85" y="380" width="12" height="40" fill="#724891"/>
  <rect x="183" y="380" width="12" height="40" fill="#724891"/>
  
  <!-- Monitor on desk -->
  <rect x="90" y="280" width="40" height="40" fill="#3a4a4a"/>
  <rect x="95" y="285" width="30" height="25" fill="#2a3a3a"/>
  <rect x="100" y="290" width="20" height="15" fill="#1a2a2a"/>
  
  <!-- Chair -->
  <rect x="145" y="350" width="30" height="12" fill="#8a64a3"/>
  <rect x="155" y="330" width="10" height="20" fill="#8a64a3"/>
  <rect x="150" y="362" width="8" height="30" fill="#724891"/>
  <rect x="162" y="362" width="8" height="30" fill="#724891"/>
  
  <!-- Wooden lamp on desk -->
  <rect x="170" y="290" width="6" height="30" fill="#8b4513"/>
  <rect x="165" y="285" width="16" height="8" fill="#d2691e"/>
  
  <!-- Armchair/couch -->
  <rect x="240" y="320" width="80" height="50" fill="#8a64a3"/>
  <rect x="240" y="320" width="80" height="10" fill="#a084ca"/>
  
  <!-- Armchair back -->
  <rect x="240" y="300" width="80" height="20" fill="#a084ca"/>
  
  <!-- Armchair arms -->
  <rect x="240" y="320" width="12" height="30" fill="#9370db"/>
  <rect x="308" y="320" width="12" height="30" fill="#9370db"/>
  
  <!-- Pillow/cushion -->
  <rect x="260" y="330" width="40" height="20" fill="#f0e8d5"/>
  <rect x="265" y="335" width="8" height="8" fill="#d4b896"/>
  <rect x="275" y="335" width="8" height="8" fill="#d4b896"/>
  <rect x="285" y="335" width="8" height="8" fill="#d4b896"/>
  <rect x="270" y="340" width="8" height="8" fill="#d4b896"/>
  <rect x="280" y="340" width="8" height="8" fill="#d4b896"/>
  
  <!-- Side table -->
  <rect x="330" y="350" width="25" height="30" fill="#8a64a3"/>
  <rect x="330" y="350" width="25" height="6" fill="#a084ca"/>
  
  <!-- Desk drawer -->
  <rect x="150" y="340" width="30" height="15" fill="#724891"/>
  <rect x="160" y="345" width="8" height="5" fill="#5a4d6b"/>
  
  <!-- Floor pattern (subtle) -->
  <rect x="20" y="450" width="8" height="8" fill="#8d6fa8"/>
  <rect x="40" y="470" width="8" height="8" fill="#8d6fa8"/>
  <rect x="60" y="450" width="8" height="8" fill="#8d6fa8"/>
  <rect x="80" y="490" width="8" height="8" fill="#8d6fa8"/>
  <rect x="300" y="460" width="8" height="8" fill="#8d6fa8"/>
  <rect x="320" y="480" width="8" height="8" fill="#8d6fa8"/>
  <rect x="340" y="450" width="8" height="8" fill="#8d6fa8"/>
</svg>