<svg width="400" height="700" xmlns="http://www.w3.org/2000/svg">
  <!-- Background walls -->
  <rect x="0" y="0" width="400" height="700" fill="#D4B896"/>
  
  <!-- Main wall area -->
  <rect x="20" y="20" width="360" height="480" fill="#F5E6D3"/>
  
  <!-- Floor -->
  <rect x="0" y="500" width="400" height="200" fill="#B8A0C7"/>
  
  <!-- Wall borders -->
  <rect x="0" y="0" width="20" height="700" fill="#A68B5B"/>
  <rect x="380" y="0" width="20" height="700" fill="#A68B5B"/>
  <rect x="0" y="0" width="400" height="20" fill="#A68B5B"/>
  <rect x="20" y="480" width="360" height="20" fill="#A68B5B"/>
  
  <!-- TV/Monitor on wall -->
  <rect x="40" y="100" width="140" height="100" fill="#4A4A4A"/>
  <rect x="50" y="110" width="120" height="80" fill="#2A2A2A"/>
  <rect x="60" y="120" width="100" height="60" fill="#6A4C93"/>
  <!-- TV screen content -->
  <rect x="70" y="130" width="15" height="40" fill="#00CED1"/>
  <rect x="90" y="130" width="15" height="40" fill="#FF6347"/>
  <rect x="110" y="130" width="15" height="40" fill="#FFA500"/>
  
  <!-- Desk -->
  <rect x="40" y="280" width="160" height="80" fill="#8A6BBE"/>
  <rect x="40" y="280" width="160" height="15" fill="#A084CA"/>
  <!-- Desk legs -->
  <rect x="50" y="360" width="15" height="60" fill="#7858A6"/>
  <rect x="185" y="360" width="15" height="60" fill="#7858A6"/>
  <!-- Desk drawer -->
  <rect x="150" y="300" width="40" height="20" fill="#6A4C93"/>
  <rect x="165" y="305" width="10" height="10" fill="#4A4A4A"/>
  
  <!-- Computer on desk -->
  <rect x="60" y="240" width="50" height="40" fill="#2A2A2A"/>
  <rect x="65" y="245" width="40" height="30" fill="#1A1A1A"/>
  
  <!-- Lamp on desk -->
  <rect x="150" y="250" width="8" height="30" fill="#8B4513"/>
  <rect x="145" y="245" width="18" height="8" fill="#D2691E"/>
  
  <!-- Chair -->
  <rect x="220" y="300" width="15" height="60" fill="#8A6BBE"/>
  <rect x="220" y="360" width="60" height="15" fill="#8A6BBE"/>
  <rect x="245" y="375" width="15" height="45" fill="#7858A6"/>
  
  <!-- Armchair/Sofa -->
  <rect x="280" y="280" width="80" height="60" fill="#8A6BBE"/>
  <rect x="280" y="280" width="80" height="15" fill="#A084CA"/>
  <!-- Armchair back -->
  <rect x="280" y="260" width="80" height="20" fill="#A084CA"/>
  <!-- Armchair arms -->
  <rect x="280" y="280" width="15" height="40" fill="#9370DB"/>
  <rect x="345" y="280" width="15" height="40" fill="#9370DB"/>
  <!-- Cushion pattern -->
  <rect x="300" y="290" width="40" height="30" fill="#F5E6D3"/>
  <rect x="305" y="295" width="10" height="10" fill="#D4B896"/>
  <rect x="320" y="295" width="10" height="10" fill="#D4B896"/>
  <rect x="315" y="305" width="10" height="10" fill="#D4B896"/>
  
  <!-- Small table/stand -->
  <rect x="360" y="340" width="30" height="40" fill="#8A6BBE"/>
  <rect x="360" y="340" width="30" height="8" fill="#A084CA"/>
</svg>